# AST/ASF file generated using VICON BodyLanguage
# -----------------------------------------------
:version 1.10
:name VICON
:units
  mass 1.0
  length 0.45
  angle deg
:documentation
   .ast/.asf automatically generated from VICON data using
   VICON BodyBuilder and BodyLanguage model FoxedUp or BRILLIANT.MOD
:root
   order TX TY TZ RX RY RZ
   axis XYZ
   position 0 0 0  
   orientation 0 0 0 
:bonedata
  begin
     id 1 
     name lhipjoint
     direction 0.597014 -0.743513 0.301268 
     length 2.48253 
     axis 0 0 0  XYZ
  end
  begin
     id 2 
     name lfemur
     direction 0.34202 -0.939693 0  
     length 7.51389  
     axis 0 0 20  XYZ
    dof rx ry rz
    limits (-160.0 20.0)
           (-70.0 70.0)
           (-60.0 70.0)
  end
  begin
     id 3 
     name ltibia
     direction 0.34202 -0.939693 0   
     length 7.54147   
     axis 0 0 20   XYZ
    dof rx
    limits (-10.0 170.0)
  end
  begin
     id 4 
     name lfoot
     direction 0.10378 -0.285133 0.952853   
     length 2.2132   
     axis -90 7.62852e-016 20   XYZ
    dof rx rz
    limits (-45.0 90.0)
           (-70.0 20.0)
  end
  begin
     id 5 
     name ltoes
     direction 1.5354e-011 -4.2171e-011 1   
     length 1.10362   
     axis -90 7.62852e-016 20   XYZ
    dof rx
    limits (-90.0 20.0)
  end
  begin
     id 6 
     name rhipjoint
     direction -0.591912 -0.747009 0.302685   
     length 2.47092  
     axis 0 0 0  XYZ 
  end
  begin
     id 7 
     name rfemur
     direction -0.34202 -0.939693 0   
     length 7.69991   
     axis 0 0 -20   XYZ
    dof rx ry rz
    limits (-160.0 20.0)
           (-70.0 70.0)
           (-70.0 60.0)
  end
  begin
     id 8 
     name rtibia
     direction -0.34202 -0.939693 0   
     length 7.40774   
     axis 0 0 -20   XYZ
    dof rx
    limits (-10.0 170.0)
 end
 begin
     id 9 
     name rfoot
     direction -0.0916245 -0.251736 0.963449   
     length 2.08235  
     axis -90 -7.62852e-016 -20   XYZ
    dof rx rz
    limits (-45.0 90.0)
           (-20.0 70.0)
  end
  begin
     id 10 
     name rtoes
     direction -1.53527e-011 -4.21878e-011 1   
     length 1.04369   
     axis -90 -7.62852e-016 -20   XYZ
    dof rx
    limits (-90.0 20.0)
  end
  begin
     id 11 
     name lowerback
     direction -0.0122523 0.991496 -0.12956   
     length 2.10814   
     axis 0 0 0   XYZ
    dof rx ry rz
    limits (-20.0 45.0)
           (-30.0 30.0)
           (-30.0 30.0)
  end
  begin
     id 12 
     name upperback
     direction 0.012378 0.999784 -0.0167122   
     length 2.11728   
     axis 0 0 0   XYZ
    dof rx ry rz
    limits (-20.0 45.0)
           (-30.0 30.0)
           (-30.0 30.0)
  end
  begin
     id 13 
     name thorax
     direction 0.0187236 0.998893 0.0431542   
     length 2.15267   
     axis 0 0 0   XYZ
    dof rx ry rz
    limits (-20.0 45.0)
           (-30.0 30.0)
           (-30.0 30.0)
  end
  begin
     id 14 
     name lowerneck
     direction 0.0165467 0.987304 0.157979   
     length 1.72129   
     axis 0 0 0   XYZ
    dof rx ry rz
    limits (-20.0 45.0)
           (-30.0 30.0)
           (-30.0 30.0)
  end
  begin
     id 15 
     name upperneck
     direction -0.0560236 0.986819 -0.151818   
     length 1.75382   
     axis 0 0 0   XYZ
    dof rx ry rz
    limits (-20.0 45.0)
           (-30.0 30.0)
           (-30.0 30.0)
  end
  begin
     id 16
     name head
     direction -0.0173602 0.99745 -0.0692312  
     length 1.76328  
     axis 0 0 0   XYZ
    dof rx ry rz
    limits (-20.0 45.0)
           (-30.0 30.0)
           (-30.0 30.0)
  end
  begin
     id 17 
     name lclavicle
     direction 0.957734 0.271724 -0.094399  
     length 3.5782  
     axis 0 0 0   XYZ
    dof ry rz
    limits (-20.0 10.0)
           (0.0 20.0)
  end
  begin
     id 18 
     name lhumerus
     direction 1 -4.48963e-011 1.21581e-027   
     length 5.25525   
     axis 180 -30 -90   XYZ
    dof rx ry rz
    limits (-60.0 90.0)
           (-90.0 90.0)
           (-90.0 90.0)
  end
  begin
     id 19
     name lradius
     direction 1 -4.48975e-011 3.71216e-028   
     length 3.35106   
     axis 180 -30 -90   XYZ
    dof rx
    limits (-10.0 170.0)
  end
  begin
     id 20
     name lwrist
     direction 1 -4.48957e-011 4.76535e-027   
     length 1.67553   
     axis -3.27501e-015 90 90   XYZ
    dof ry
    limits (-180.0 0.0)
 end
  begin
     id 21 
     name lhand
     direction 1 -4.49008e-011 9.52727e-027   
     length 0.574153   
     axis -6.08097e-015 90 90   XYZ
    dof rx rz
    limits (-90.0 90.0)
           (-45.0 45.0)
  end
  begin
     id 22 
     name lfingers
     direction 1 -4.48996e-011 1.90562e-026   
     length 0.462897   
     axis -1.21618e-014 90 90   XYZ
    dof rx
    limits (0.0 90.0)
  end
  begin
     id 23
     name lthumb
     direction 0.707107 -6.34908e-011 0.707107   
     length 0.66463   
     axis -90 45 -1.62303e-014   XYZ
    dof rx rz
    limits (-45.0 45.0)
           (-45.0 45.0)
  end
  begin
     id 24 
     name rclavicle
     direction -0.950439 0.29623 -0.0944132   
     length 3.45861  
     axis 0 0 0   XYZ 
    dof ry rz
    limits (-10.0 20.0)
           (-20.0 0.0)
  end
  begin
     id 25 
     name rhumerus
     direction -1 -4.48986e-011 1.25473e-027  
     length 5.33104   
     axis 180 30 90   XYZ
    dof rx ry rz
    limits (-90.0 60.0)
           (-90.0 90.0)
           (-90.0 90.0)
  end
  begin
     id 26 
     name rradius
     direction -1 -4.4894e-011 1.66273e-027   
     length 3.39883   
     axis 180 30 90   XYZ
    dof rx
    limits (-10.0 170.0)
  end
  begin
     id 27 
     name rwrist
     direction -1 -4.48946e-011 4.76572e-027   
     length 1.69941   
     axis -3.27501e-015 -90 -90   XYZ
    dof ry
    limits (-180.0 0.0)
  end
  begin
     id 28
     name rhand
     direction -1 -4.49028e-011 9.52595e-027   
     length 0.913886   
     axis -6.08097e-015 -90 -90   XYZ
    dof rx rz
    limits (-90.0 90.0)
           (-45.0 45.0)
  end
  begin
     id 29
     name rfingers
     direction -1 -4.48945e-011 1.9063e-026   
     length 0.736798   
     axis -1.21618e-014 -90 -90   XYZ
    dof rx
    limits (0.0 90.0)
  end
  begin
     id 30
     name rthumb
     direction -0.707107 -6.34966e-011 0.707107   
     length 1.0579   
     axis -90 -45 1.62303e-014   XYZ
    dof rx rz
    limits (-45.0 45.0)
           (-45.0 45.0)
  end
:hierarchy
  begin
    root lhipjoint rhipjoint lowerback
    lhipjoint lfemur
    lfemur ltibia
    ltibia lfoot
    lfoot ltoes
    rhipjoint rfemur
    rfemur rtibia
    rtibia rfoot
    rfoot rtoes
    lowerback upperback
    upperback thorax
    thorax lowerneck lclavicle rclavicle
    lowerneck upperneck
    upperneck head
    lclavicle lhumerus
    lhumerus lradius
    lradius lwrist
    lwrist lhand lthumb
    lhand lfingers
    rclavicle rhumerus
    rhumerus rradius
    rradius rwrist
    rwrist rhand rthumb
    rhand rfingers
  end

#!OML:ASF F:\VICON\USERDATA\INSTALL\rory3\rory3.ASF
:FULLY-SPECIFIED
:DEGREES
1205
root 15.9643 17.1378 17.2003 -545.813 -36.0965 -540.394
lowerback 14.8383 3.56192 3.1952
upperback 1.3304 5.14148 0.447497
thorax -6.64281 2.365 -2.34862
lowerneck -19.6633 5.42295 6.72334
upperneck 6.43034 6.21067 -6.4671
head 5.50697 2.67286 -2.48887
rclavicle 3.20789e-014 1.94809e-014
rhumerus 22.1746 18.4222 -74.5043
rradius 77.4911
rwrist -6.82066
rhand -34.0649 373.6
rfingers 7.12502
rthumb -7.24218 -736.256
lclavicle 3.20789e-014 1.94809e-014
lhumerus -28.299 3.78266 73.5958
lradius 70.4654
lwrist 16.8771
lhand -19.1394 13.685
lfingers 7.12502
lthumb 7.17063 43.5435
rfemur -5.35783 -12.362 22.6726
rtibia 48.8971
rfoot -20.3727 -1.07633
rtoes -7.91743
lfemur -7.7569 -14.4215 -13.4372
ltibia 65.9715
lfoot 9.17316 -5.25666
ltoes -23.7283
1206
root 15.9782 17.0393 16.9015 -546.764 -34.0054 -539.169
lowerback 15.3786 3.93968 4.29777
upperback 1.4989 5.85112 0.975006
thorax -6.66525 2.6728 -2.57262
lowerneck -18.1791 5.9666 7.39386
upperneck 4.70783 6.92311 -7.92748
head 4.86637 2.95834 -3.01716
rclavicle 7.38734e-014 3.57812e-014
rhumerus 20.9649 19.2399 -74.3121
rradius 76.374
rwrist -4.85581
rhand -33.6375 373.894
rfingers 7.12502
rthumb -6.82967 -735.976
lclavicle 7.38734e-014 3.57812e-014
lhumerus -30.3586 5.79662 72.4526
lradius 70.3307
lwrist 15.3365
lhand -18.8847 13.0149
lfingers 7.12502
lthumb 7.41645 42.8649
rfemur -3.59849 -10.9237 24.7096
rtibia 47.8091
rfoot -21.9593 -1.90811
rtoes -14.1964
lfemur -9.54922 -12.3346 -12.4048
ltibia 70.0767
lfoot 8.03323 -4.97722
ltoes -20.0129
1207
root 15.9572 16.9757 16.6226 -546.127 -32.3409 -539.424
lowerback 14.7943 4.48813 4.35584
upperback 1.80468 6.54651 1.29035
thorax -6.00001 3.03422 -2.33589
lowerneck -17.9083 6.36268 7.13187
upperneck 3.81987 7.53303 -8.8324
head 4.62866 3.18905 -3.2088
rclavicle 7.70291e-015 -3.18055e-015
rhumerus 20.0502 19.649 -73.462
rradius 74.7228
rwrist -3.56336
rhand -33.4031 374.178
rfingers 7.12502
rthumb -6.60334 -735.699
lclavicle 7.70291e-015 -3.18055e-015
lhumerus -32.0914 7.24249 71.7383
lradius 71.188
lwrist 13.1156
lhand -16.7534 11.8059
lfingers 7.12502
lthumb 9.47326 41.5729
rfemur -2.65961 -10.3652 25.1411
rtibia 46.7764
rfoot -24.4094 -6.13049
rtoes -35.3861
lfemur -12.1643 -10.515 -13.0826
ltibia 73.1995
lfoot 6.44171 -5.30108
ltoes -17.3558
1208
root 15.933 16.9397 16.3326 -545.177 -30.3727 -540.19
lowerback 15.1392 4.95754 4.70545
upperback 1.41302 7.24163 0.616561
thorax -6.4308 3.34845 -3.41686
lowerneck -18.285 6.47332 6.74445
upperneck 4.23585 7.71493 -8.15973
head 4.78243 3.30484 -2.90563
rclavicle 3.28243e-014 -2.46493e-014
rhumerus 18.0217 19.9782 -74.4851
rradius 72.8833
rwrist -3.13516
rhand -33.0238 373.3
rfingers 7.12502
rthumb -6.23718 -736.588
lclavicle 3.28243e-014 -2.46493e-014
lhumerus -34.778 7.5021 69.7774
lradius 72.279
lwrist 12.8424
lhand -16.3686 11.2126
lfingers 7.12502
lthumb 9.84456 40.9624
rfemur -1.78679 -9.5198 25.0304
rtibia 45.7169
rfoot -25.0424 -9.12488
rtoes -43.1037
lfemur -14.592 -8.56685 -14.4493
ltibia 75.249
lfoot 4.51331 -6.07293
ltoes -19.3982
1209
root 15.879 16.9525 15.9672 -543.714 -29.3959 -542.652
lowerback 14.2248 5.58367 2.56033
upperback 1.76857 7.66725 0.455929
thorax -5.77293 3.63842 -2.37209
lowerneck -18.2263 6.58546 5.90753
upperneck 3.94749 8.04134 -8.35429
head 4.68564 3.4314 -2.80483
rclavicle -1.25731e-014 3.97569e-015
rhumerus 16.4923 20.706 -73.9194
rradius 70.6435
rwrist -2.82588
rhand -32.8672 372.463
rfingers 7.12502
rthumb -6.08598 -737.43
lclavicle -1.25731e-014 3.97569e-015
lhumerus -37.5566 6.57543 70.0278
lradius 74.2676
lwrist 16.0799
lhand -19.7478 13.1493
lfingers 7.12502
lthumb 6.58325 43.027
rfemur -0.111887 -9.75946 22.6448
rtibia 44.6632
rfoot -24.0606 -10.4625
rtoes -48.6931
lfemur -15.9836 -7.7802 -18.0696
ltibia 75.6739
lfoot 3.34623 -6.26455
ltoes -17.6634
1210
root 15.8559 16.9894 15.6637 -544.188 -26.9948 -540.828
lowerback 15.0432 5.99659 4.96616
upperback 1.18837 8.6517 0.193643
thorax -6.39385 4.03164 -4.25603
lowerneck -17.9981 6.79538 6.32366
upperneck 3.81745 8.19263 -7.83389
head 4.60847 3.56007 -2.69732
rclavicle 7.07922e-014 -1.23246e-014
rhumerus 13.9106 21.039 -75.5431
rradius 68.3834
rwrist -2.96411
rhand -32.0204 371.021
rfingers 7.12502
rthumb -5.26838 -738.893
lclavicle 7.07922e-014 -1.23246e-014
lhumerus -40.3918 6.44856 68.3662
lradius 74.9648
lwrist 17.5346
lhand -20.0076 13.6483
lfingers 7.12502
lthumb 6.33251 43.5336
rfemur 0.9691 -8.33003 24.8051
rtibia 43.4069
rfoot -20.3401 -11.3268
rtoes -53.3092
lfemur -17.9779 -5.86173 -17.0721
ltibia 75.4238
lfoot 0.370782 -7.76674
ltoes -19.8369
1211
root 15.8233 17.0485 15.3127 -543.807 -26.1586 -540.96
lowerback 14.5954 6.05996 4.66276
upperback 1.04417 8.67188 0.0257515
thorax -6.31837 4.05754 -4.22671
lowerneck -17.2535 7.2602 7.13484
upperneck 3.42845 8.68623 -8.02431
head 4.44965 3.82845 -2.8527
rclavicle -1.30204e-014 -1.15295e-014
rhumerus 11.363 21.5962 -76.9852
rradius 66.2577
rwrist -5.12094
rhand -29.2896 371.119
rfingers 7.12502
rthumb -2.63143 -738.845
lclavicle -1.30204e-014 -1.15295e-014
lhumerus -43.4048 7.38696 66.9065
lradius 75.3146
lwrist 17.3243
lhand -16.0263 11.1015
lfingers 7.12502
lthumb 10.1748 40.8354
rfemur 2.39457 -8.28188 24.6037
rtibia 42.1545
rfoot -16.5004 -10.8738
rtoes -55.7299
lfemur -19.4575 -5.78185 -18.4011
ltibia 73.7332
lfoot -1.61902 -8.52255
ltoes -17.9079
1212
root 15.7862 17.1456 14.9474 -543.556 -25.6071 -540.994
lowerback 14.5508 6.70279 5.04848
upperback 1.08498 9.58124 0.0421497
thorax -6.10281 4.50264 -4.55533
lowerneck -17.8922 6.57255 5.44846
upperneck 3.67607 8.02175 -7.18434
head 4.47018 3.50782 -2.38073
rclavicle 9.98893e-015 4.77083e-015
rhumerus 8.22778 20.8523 -76.8037
rradius 64.2526
rwrist -6.03283
rhand -27.6215 370.282
rfingers 7.12502
rthumb -1.02039 -739.695
lclavicle 9.98893e-015 4.77083e-015
lhumerus -44.978 5.74817 68.226
lradius 76.0928
lwrist 19.8881
lhand -17.3032 12.405
lfingers 7.12502
lthumb 8.94279 42.1955
rfemur 3.92112 -8.45465 24.3866
rtibia 40.8699
rfoot -13.4944 -9.27394
rtoes -55.2566
lfemur -20.4662 -6.26339 -19.6871
ltibia 71.0886
lfoot -4.15303 -9.09477
ltoes -15.6154
1213
root 15.7565 17.2622 14.5777 -543.521 -24.7413 -540.311
lowerback 13.9995 6.61226 4.80867
upperback 0.805491 9.43217 0.127823
thorax -6.16791 4.4391 -4.26406
lowerneck -16.9032 7.34159 7.23688
upperneck 3.51598 8.79025 -7.73889
head 4.41864 3.91321 -2.77623
rclavicle 1.39398e-014 1.78906e-014
rhumerus 4.90818 22.2133 -78.9055
rradius 61.8643
rwrist -6.52972
rhand -25.8148 369.993
rfingers 7.12502
rthumb 0.724601 -739.986
lclavicle 1.39398e-014 1.78906e-014
lhumerus -48.0946 5.98785 67.3197
lradius 76.8441
lwrist 20.9524
lhand -17.8429 12.6731
lfingers 7.12502
lthumb 8.42191 42.4851
rfemur 5.1095 -8.04907 25.1094
rtibia 39.7541
rfoot -11.7283 -6.72595
rtoes -52.8386
lfemur -21.3135 -6.60772 -20.0917
ltibia 67.505
lfoot -6.4713 -9.74718
ltoes -14.9201
1214
root 15.7128 17.3885 14.1872 -543.35 -24.5701 -539.924
lowerback 13.8571 6.8389 5.32227
upperback 0.40779 9.82704 -0.126896
thorax -6.34671 4.60947 -4.87843
lowerneck -16.8337 7.17308 7.33797
upperneck 3.95595 8.54172 -7.19562
head 4.50183 3.83565 -2.64428
rclavicle 2.05121e-014 1.51076e-014
rhumerus 0.551776 21.1792 -80.6395
rradius 59.4924
rwrist -6.10389
rhand -24.3992 369.943
rfingers 7.12502
rthumb 2.09186 -740.026
lclavicle 2.05121e-014 1.51076e-014
lhumerus -49.9454 6.40739 66.9001
lradius 76.0277
lwrist 19.3928
lhand -17.5149 11.9385
lfingers 7.12502
lthumb 8.73851 41.7376
rfemur 6.13542 -8.31748 25.2886
rtibia 38.9281
rfoot -11.7187 -2.9812
rtoes -53.1749
lfemur -21.7998 -7.66057 -20.8263
ltibia 62.9888
lfoot -8.46303 -10.1015
ltoes -15.1084
1215
root 15.685 17.5064 13.7838 -543.995 -24.0383 -538.491
lowerback 13.7531 6.94639 6.09152
upperback 0.368816 10.1128 0.349802
thorax -6.25747 4.73171 -4.82145
lowerneck -16.9891 7.30214 6.87124
upperneck 4.28501 8.79296 -6.84667
head 4.60753 3.96906 -2.42897
rclavicle -9.4547e-014 3.97569e-016
rhumerus -3.18726 20.5572 -82.1163
rradius 56.5307
rwrist -5.52696
rhand -22.7105 370.424
rfingers 7.12502
rthumb 3.72271 -739.523
lclavicle -9.4547e-014 3.97569e-016
lhumerus -51.8623 6.15779 67.6184
lradius 76.3449
lwrist 20.2961
lhand -14.6995 11.0314
lfingers 7.12502
lthumb 11.4546 40.6985
rfemur 7.09864 -7.94152 26.6632
rtibia 38.353
rfoot -9.83149 6.1168
rtoes -59.1687
lfemur -21.7011 -8.43168 -20.2322
ltibia 58.1171
lfoot -10.0613 -11.0333
ltoes -13.8086
